<?xml version="1.0" encoding="utf-8"?>
<!-- Generator: Adobe Illustrator 17.0.0, SVG Export Plug-In . SVG Version: 6.00 Build 0)  -->
<!DOCTYPE svg PUBLIC "-//W3C//DTD SVG 1.1//EN" "http://www.w3.org/Graphics/SVG/1.1/DTD/svg11.dtd">
<svg version="1.1" id="Layer_3" xmlns="http://www.w3.org/2000/svg" xmlns:xlink="http://www.w3.org/1999/xlink" x="0px" y="0px"
	 width="64px" height="64px" viewBox="0 0 64 64" enable-background="new 0 0 64 64" xml:space="preserve">
<g>
	<path fill="#010101" d="M13.838,4.518v9.081H0.216v40.865c0,5.015,4.066,9.081,9.081,9.081h45.405c5.015,0,9.081-4.066,9.081-9.081
		V4.518H13.838z M13.838,54.464c0,2.509-2.034,4.541-4.541,4.541c-2.509,0-4.541-2.032-4.541-4.541V18.139h9.081V54.464z
		 M59.243,54.464c0,2.504-2.036,4.541-4.541,4.541H17.159c0.776-1.337,1.219-2.888,1.219-4.541V9.058h40.865V54.464z"/>
	<path fill="#010101" d="M34.279,20.412V37.77c-1.208-0.901-2.795-1.455-4.543-1.455c-3.764,0-6.815,2.543-6.815,5.68
		s3.051,5.68,6.815,5.68c3.764,0,6.815-2.543,6.815-5.68V29.173l15.903-3.535v7.587c-1.208-0.901-2.795-1.455-4.543-1.455
		c-3.764,0-6.815,2.543-6.815,5.68s3.051,5.68,6.815,5.68c3.764,0,6.815-2.543,6.815-5.68V15.869L34.279,20.412z M29.734,45.403
		c-2.463,0-4.543-1.56-4.543-3.408s2.082-3.408,4.543-3.408c2.463,0,4.543,1.56,4.543,3.408
		C34.279,43.843,32.198,45.403,29.734,45.403z M47.91,40.86c-2.463,0-4.543-1.56-4.543-3.408s2.082-3.408,4.543-3.408
		s4.543,1.56,4.543,3.408S50.373,40.86,47.91,40.86z M36.55,26.846v-4.611L52.453,18.7v4.611L36.55,26.846z"/>
</g>
</svg>
