<?xml version="1.0" encoding="utf-8"?>
<!-- Generator: Adobe Illustrator 17.0.0, SVG Export Plug-In . SVG Version: 6.00 Build 0)  -->
<!DOCTYPE svg PUBLIC "-//W3C//DTD SVG 1.1//EN" "http://www.w3.org/Graphics/SVG/1.1/DTD/svg11.dtd">
<svg version="1.1" xmlns="http://www.w3.org/2000/svg" xmlns:xlink="http://www.w3.org/1999/xlink" x="0px" y="0px" width="144px"
	 height="144px" viewBox="0 0 144 144" enable-background="new 0 0 144 144" xml:space="preserve">
<g id="Layer_1" display="none">
	<path display="inline" fill="#5E6D81" d="M0,0v133.567h144V0H0z M133.714,102.857H10.286V10.286h123.429V102.857z M87.429,30.857
		L61.714,61.714L51.429,51.429L20.571,92.571h102.857L87.429,30.857z M52.541,67.088l9.864,9.864l23.532-28.24l19.585,33.574H41.143
		L52.541,67.088z M30.857,41.143c5.68,0,10.286-4.605,10.286-10.286c0-5.68-4.605-10.286-10.286-10.286s-10.286,4.606-10.286,10.286
		C20.571,36.538,25.177,41.143,30.857,41.143z"/>
</g>
<g id="Layer_2" display="none">
	<path display="inline" fill="#5E6D81" d="M97.714,0L46.286,20.571L0,0v113.143l46.286,20.571l51.429-20.571L144,133.714V20.571
		L97.714,0z M51.429,29.594l41.143-16.456v90.982l-41.143,16.456V29.594z M10.286,15.825l30.857,13.719v90.628l-30.857-13.713
		V15.825z M133.714,117.889l-30.857-13.719V13.543l30.857,13.713V117.889z"/>
</g>
<g id="Layer_3" display="none">
	<path display="inline" fill="#5E6D81" d="M76.774-0.143H19.38v133.921h105.224V47.686L76.774-0.143z M76.774,13.384l34.3,34.302
		h-34.3V13.384z M115.037,124.212H28.945V9.423h38.263v47.829h47.829V124.212z M38.511,76.384h66.961v-9.566H38.511V76.384z
		 M38.511,95.515h66.961v-9.566H38.511V95.515z M38.511,114.647h66.961v-9.566H38.511V114.647z"/>
</g>
<g id="Layer_4">
	<path fill="#5E6D81" d="M72,19.069C52.484,2.234,18.965,0,5.259,0v114.413c13.706,0,47.225,2.234,66.741,19.069
		c19.516-16.834,53.035-19.069,66.741-19.069V0C125.035,0,91.516,2.234,72,19.069z M14.793,9.858
		c22.36,2.046,38.543,6.031,52.439,17.595v91.28c-17.276-9.709-38.306-12.76-52.439-13.575V9.858z M129.207,105.158
		c-14.134,0.815-35.163,3.866-52.439,13.575v-91.28c13.896-11.564,30.079-15.549,52.439-17.595V105.158z"/>
	<path fill="#5E6D81" d="M120.617,10.34v27.186l-4.531-6.042l-4.531,6.042V10.34H120.617z"/>
</g>
</svg>
