<?xml version="1.0" encoding="utf-8"?>
<!-- Generator: Adobe Illustrator 17.0.0, SVG Export Plug-In . SVG Version: 6.00 Build 0)  -->
<!DOCTYPE svg PUBLIC "-//W3C//DTD SVG 1.1//EN" "http://www.w3.org/Graphics/SVG/1.1/DTD/svg11.dtd">
<svg version="1.1" id="Layer_2" xmlns="http://www.w3.org/2000/svg" xmlns:xlink="http://www.w3.org/1999/xlink" x="0px" y="0px"
	 width="64px" height="64px" viewBox="0 0 64 64" enable-background="new 0 0 64 64" xml:space="preserve">
<g id="Layer_4">
	<g>
		<path fill="#010101" d="M63.933,51.227V4.392H0.067v46.834h23.417v4.258L19.227,64h25.546l-4.258-8.515v-4.258H63.933z
			 M26.116,59.742l1.626-3.253v-5.262h8.515v5.262l1.626,3.253H26.116z M4.325,46.969V8.65h55.35v38.319H4.325z M8.583,42.712
			h46.834V12.908H8.583V42.712z M12.84,17.166H51.16v21.288H12.84V17.166z"/>
		<g>
			<path fill="#010101" d="M35.2,23.103h0.654l-0.977,5.484c-0.064,0.332-0.113,0.628-0.143,0.89
				c-0.034,0.262-0.047,0.492-0.047,0.696c0,0.319,0.053,0.553,0.164,0.698c0.109,0.147,0.3,0.221,0.571,0.221
				c0.439,0,0.873-0.115,1.305-0.345c0.43-0.228,0.815-0.556,1.15-0.975s0.609-0.928,0.822-1.52c0.213-0.592,0.317-1.26,0.317-1.999
				c0-0.981-0.166-1.848-0.498-2.601c-0.332-0.754-0.8-1.386-1.401-1.903c-0.602-0.517-1.32-0.909-2.15-1.177
				c-0.835-0.268-1.748-0.4-2.748-0.4c-1.037,0-2.014,0.192-2.929,0.575s-1.709,0.913-2.382,1.59
				c-0.673,0.677-1.203,1.488-1.595,2.433c-0.392,0.945-0.585,1.976-0.585,3.085c0,1.137,0.177,2.154,0.528,3.048
				c0.353,0.894,0.854,1.646,1.507,2.261c0.654,0.615,1.433,1.079,2.342,1.399c0.909,0.317,1.92,0.479,3.031,0.479
				c0.373,0,0.794-0.043,1.269-0.126c0.473-0.083,0.903-0.221,1.286-0.411l0.385,1.226c-0.575,0.243-1.107,0.404-1.59,0.488
				c-0.488,0.083-1.009,0.126-1.571,0.126c-1.188,0-2.301-0.179-3.342-0.536c-1.041-0.358-1.948-0.888-2.721-1.59
				c-0.773-0.703-1.382-1.573-1.829-2.616c-0.447-1.041-0.671-2.246-0.671-3.611c0-1.392,0.238-2.65,0.717-3.774
				c0.479-1.122,1.126-2.082,1.946-2.874c0.817-0.792,1.769-1.401,2.855-1.829c1.086-0.428,2.235-0.643,3.449-0.643
				c1.15,0,2.216,0.168,3.2,0.507c0.981,0.338,1.835,0.824,2.557,1.458c0.722,0.632,1.29,1.405,1.707,2.318
				c0.413,0.913,0.622,1.95,0.622,3.112c0,0.82-0.141,1.601-0.422,2.348c-0.283,0.749-0.664,1.403-1.143,1.965
				s-1.041,1.013-1.682,1.352s-1.318,0.507-2.035,0.507c-0.539,0-0.966-0.115-1.286-0.345c-0.321-0.23-0.481-0.658-0.481-1.284
				c0-0.117,0.006-0.241,0.019-0.375c0.013-0.134,0.032-0.279,0.055-0.432h-0.075c-0.181,0.296-0.392,0.585-0.634,0.873
				c-0.241,0.287-0.513,0.545-0.813,0.775c-0.3,0.23-0.622,0.417-0.958,0.566c-0.338,0.147-0.694,0.221-1.064,0.221
				c-0.307,0-0.6-0.066-0.881-0.202c-0.281-0.132-0.524-0.328-0.728-0.583s-0.368-0.56-0.488-0.911
				c-0.121-0.351-0.183-0.751-0.183-1.196c0-0.817,0.134-1.622,0.402-2.414c0.268-0.792,0.628-1.494,1.081-2.108
				c0.453-0.613,0.984-1.109,1.59-1.484c0.607-0.377,1.247-0.566,1.924-0.566c0.473,0,0.849,0.07,1.13,0.213
				c0.281,0.138,0.556,0.311,0.824,0.515L35.2,23.103z M34.11,24.98c-0.217-0.255-0.434-0.43-0.651-0.528
				c-0.219-0.096-0.492-0.143-0.824-0.143c-0.498,0-0.966,0.151-1.399,0.451c-0.434,0.3-0.809,0.69-1.122,1.169
				c-0.313,0.479-0.562,1.018-0.747,1.609c-0.185,0.594-0.277,1.179-0.277,1.752c0,0.498,0.102,0.924,0.307,1.275
				c0.204,0.351,0.575,0.528,1.111,0.528c0.255,0,0.522-0.083,0.796-0.249c0.275-0.166,0.545-0.394,0.815-0.679
				c0.268-0.287,0.524-0.611,0.764-0.969c0.243-0.358,0.462-0.722,0.654-1.092L34.11,24.98z"/>
		</g>
	</g>
</g>
</svg>
