<?xml version="1.0" encoding="utf-8"?>
<!-- Generator: Adobe Illustrator 17.0.0, SVG Export Plug-In . SVG Version: 6.00 Build 0)  -->
<!DOCTYPE svg PUBLIC "-//W3C//DTD SVG 1.1//EN" "http://www.w3.org/Graphics/SVG/1.1/DTD/svg11.dtd">
<svg version="1.1" id="Layer_1" xmlns="http://www.w3.org/2000/svg" xmlns:xlink="http://www.w3.org/1999/xlink" x="0px" y="0px"
	 width="64px" height="64px" viewBox="0 0 64 64" enable-background="new 0 0 64 64" xml:space="preserve">
<g>
	<g>
		<g>
			<path fill="#010101" d="M29.613,15.705c-6.174,0-11.179,5.005-11.179,11.179s5.005,11.179,11.179,11.179
				s11.179-5.005,11.179-11.179C40.794,20.71,35.787,15.705,29.613,15.705z M29.613,36.574c-5.352,0-9.689-4.338-9.689-9.689
				c0-5.352,4.338-9.689,9.689-9.689c5.352,0,9.689,4.338,9.689,9.689S34.965,36.574,29.613,36.574z"/>
		</g>
		<g>
			<path fill="#010101" d="M5.998,45.439c-3.214,0-5.821,2.605-5.821,5.821c0,3.214,2.605,5.821,5.821,5.821
				c3.214,0,5.821-2.605,5.821-5.821C11.818,48.046,9.212,45.439,5.998,45.439z M5.998,56.305c-2.786,0-5.045-2.259-5.045-5.045
				c0-2.786,2.259-5.045,5.045-5.045s5.045,2.259,5.045,5.045S8.783,56.305,5.998,56.305z"/>
		</g>
		<g>
			<path fill="#010101" d="M57.667,45.828c-3.214,0-5.821,2.432-5.821,5.432s2.605,5.432,5.821,5.432
				c3.214,0,5.821-2.432,5.821-5.432S60.881,45.828,57.667,45.828z M57.667,55.968c-2.786,0-5.045-2.108-5.045-4.708
				c0-2.6,2.259-4.708,5.045-4.708c2.786,0,5.045,2.108,5.045,4.708C62.712,53.86,60.453,55.968,57.667,55.968z"/>
		</g>
		<g>
			<path fill="#010101" d="M11.186,49.993v2.817l7.437,0.007l-0.382-3.125L11.186,49.993z"/>
		</g>
		<g>
			<rect x="35.148" y="60.82" fill="#010101" width="20.006" height="2.817"/>
		</g>
		<g>
			<polygon fill="#010101" points="36.977,63.637 44.972,32.301 42.889,29.573 34.321,63.637 			"/>
		</g>
		<g>
			<polygon fill="#010101" points="54.997,63.637 63.823,29.573 60.909,29.573 52.341,63.637 			"/>
		</g>
		<g>
			<polygon fill="#010101" points="42.987,32.39 62.856,32.39 63.823,29.573 42.889,29.573 			"/>
		</g>
		<g>
			<path fill="#FFFFFF" d="M62.078,51.276c0.249,2.57-2.231,4.717-4.695,4.684c-2.707-0.035-4.664-2.241-4.026-4.7
				c0.648-2.498,1.362-4.674,4.148-4.674C60.632,46.586,61.771,48.12,62.078,51.276z"/>
		</g>
		<g>
			<path fill="#010101" d="M15.639,52.124c-0.457-4.29,0.225-7.381,2.086-9.451c1.726-1.92,4.412-2.854,8.21-2.854v2.817
				c-2.995,0-4.938,0.611-6.116,1.92c-1.278,1.422-1.743,3.867-1.38,7.269L15.639,52.124z"/>
		</g>
		<g>
			<path fill="#010101" d="M37.885,49.501c-0.36-2.76-0.791-6.072-5.759-6.879l0.451-2.781c7.04,1.144,7.722,6.383,8.088,9.197
				L37.885,49.501z"/>
		</g>
		<g>
			<path fill="#010101" d="M57.849,3.345H44.108c-1.511,0-2.748,1.237-2.748,2.748v9.619c0,1.511,1.237,2.748,2.748,2.748h1.375
				v4.122l6.871-4.122h5.497c1.511,0,2.748-1.237,2.748-2.748V6.093C60.597,4.582,59.36,3.345,57.849,3.345z M59.222,15.712
				c0,0.758-0.615,1.375-1.375,1.375H51.97l-5.115,3.07v-3.07h-2.748c-0.758,0-1.375-0.615-1.375-1.375V6.093
				c0-0.758,0.615-1.375,1.375-1.375h13.741c0.758,0,1.375,0.615,1.375,1.375v9.619H59.222z M45.481,9.528
				c-0.759,0-1.375,0.615-1.375,1.375s0.615,1.375,1.375,1.375s1.375-0.615,1.375-1.375C46.855,10.143,46.24,9.528,45.481,9.528z
				 M50.978,9.528c-0.759,0-1.375,0.615-1.375,1.375s0.615,1.375,1.375,1.375s1.375-0.615,1.375-1.375
				C52.352,10.143,51.737,9.528,50.978,9.528z M56.474,9.528c-0.759,0-1.375,0.615-1.375,1.375s0.615,1.375,1.375,1.375
				s1.375-0.615,1.375-1.375C57.849,10.143,57.233,9.528,56.474,9.528z"/>
		</g>
		<g>
			<polygon fill="#010101" points="23.708,40.84 24.463,42.644 24.463,42.644 29.613,49.019 29.613,46.869 25.936,39.827 			"/>
		</g>
		<g>
			<polygon fill="#010101" points="32.561,39.738 29.613,46.869 29.613,49.019 34.576,43.151 34.576,43.151 34.055,40.162 			"/>
		</g>
		<g>
			<polygon fill="#010101" points="29.613,48.91 29.613,48.91 29.142,46.869 30.111,46.869 			"/>
		</g>
	</g>
	<g>
		<path fill="#010101" d="M6.016,57.192c-3.18,0-5.767-2.587-5.767-5.767c0-3.181,2.587-5.768,5.767-5.768
			c3.18,0,5.767,2.587,5.767,5.768C11.783,54.605,9.196,57.192,6.016,57.192z M6.016,47.066c-2.403,0-4.358,1.956-4.358,4.36
			c0,2.403,1.955,4.358,4.358,4.358s4.359-1.956,4.359-4.358C10.375,49.021,8.419,47.066,6.016,47.066z"/>
	</g>
	<g>
		<path fill="#010101" d="M57.665,57.04c-3.181,0-5.768-2.587-5.768-5.767s2.587-5.767,5.768-5.767c3.18,0,5.767,2.587,5.767,5.767
			S60.845,57.04,57.665,57.04z M57.665,46.914c-2.404,0-4.36,1.956-4.36,4.358s1.956,4.358,4.36,4.358
			c2.403,0,4.358-1.956,4.358-4.358S60.067,46.914,57.665,46.914z"/>
	</g>
	<g>
		<path fill="#010101" d="M29.627,37.356c-5.774,0-10.471-4.697-10.471-10.471s4.697-10.471,10.471-10.471s10.47,4.697,10.47,10.471
			S35.401,37.356,29.627,37.356z M29.627,17.822c-4.997,0-9.063,4.066-9.063,9.063s4.066,9.063,9.063,9.063
			c4.997,0,9.062-4.066,9.062-9.063S34.624,17.822,29.627,17.822z"/>
	</g>
</g>
</svg>
