<?xml version="1.0" encoding="utf-8"?>
<!-- Generator: Adobe Illustrator 17.0.0, SVG Export Plug-In . SVG Version: 6.00 Build 0)  -->
<!DOCTYPE svg PUBLIC "-//W3C//DTD SVG 1.1//EN" "http://www.w3.org/Graphics/SVG/1.1/DTD/svg11.dtd">
<svg version="1.1" xmlns="http://www.w3.org/2000/svg" xmlns:xlink="http://www.w3.org/1999/xlink" x="0px" y="0px" width="144px"
	 height="144px" viewBox="0 0 144 144" enable-background="new 0 0 144 144" xml:space="preserve">
<g id="Layer_1" display="none">
	<path display="inline" fill="#5E6D81" d="M0,0v133.567h144V0H0z M133.714,102.857H10.286V10.286h123.429V102.857z M87.429,30.857
		L61.714,61.714L51.429,51.429L20.571,92.571h102.857L87.429,30.857z M52.541,67.088l9.864,9.864l23.532-28.24l19.585,33.574H41.143
		L52.541,67.088z M30.857,41.143c5.68,0,10.286-4.605,10.286-10.286c0-5.68-4.605-10.286-10.286-10.286s-10.286,4.606-10.286,10.286
		C20.571,36.538,25.177,41.143,30.857,41.143z"/>
</g>
<g id="Layer_2" display="none">
	<path display="inline" fill="#5E6D81" d="M97.714,0L46.286,20.571L0,0v113.143l46.286,20.571l51.429-20.571L144,133.714V20.571
		L97.714,0z M51.429,29.594l41.143-16.456v90.982l-41.143,16.456V29.594z M10.286,15.825l30.857,13.719v90.628l-30.857-13.713
		V15.825z M133.714,117.889l-30.857-13.719V13.543l30.857,13.713V117.889z"/>
</g>
<g id="Layer_3" display="none">
	<path display="inline" fill="#5E6D81" d="M76.774-0.143H19.38v133.921h105.224V47.686L76.774-0.143z M76.774,13.384l34.3,34.302
		h-34.3V13.384z M115.037,124.212H28.945V9.423h38.263v47.829h47.829V124.212z M38.511,76.384h66.961v-9.566H38.511V76.384z
		 M38.511,95.515h66.961v-9.566H38.511V95.515z M38.511,114.647h66.961v-9.566H38.511V114.647z"/>
</g>
<g id="Layer_4" display="none">
	<path display="inline" fill="#5E6D81" d="M72,19.069C52.484,2.234,18.965,0,5.259,0v114.413c13.706,0,47.225,2.234,66.741,19.069
		c19.516-16.834,53.035-19.069,66.741-19.069V0C125.035,0,91.516,2.234,72,19.069z M14.793,9.858
		c22.36,2.046,38.543,6.031,52.439,17.595v91.28c-17.276-9.709-38.306-12.76-52.439-13.575V9.858z M129.207,105.158
		c-14.134,0.815-35.163,3.866-52.439,13.575v-91.28c13.896-11.564,30.079-15.549,52.439-17.595V105.158z"/>
	<path display="inline" fill="#5E6D81" d="M120.617,10.34v27.186l-4.531-6.042l-4.531,6.042V10.34H120.617z"/>
</g>
<g id="Layer_5">
	<g>
		<g>
			<path fill="#5E6D81" d="M13.74,62.13h75.936V13.807H13.74V62.13z M20.643,20.71h62.13v34.517h-62.13V20.71z"/>
		</g>
	</g>
	<g>
		<g>
			<path fill="#5E6D81" d="M6.837,69.033V6.903H96.58v49.299c0.349-0.35,0.758-0.667,1.278-0.908
				c0.051-0.024,0.102-0.048,0.154-0.071c1.837-0.853,3.895-0.844,5.471,0.193V0H-0.067v75.936h37.968v6.903l-6.903,13.807h41.42
				L65.515,82.84v-6.903H77.18c-1.297-2.135-1.084-5.301,0.764-6.903H6.837z M42.169,89.743l2.636-5.275v-8.531h13.807v8.531
				l2.636,5.275H42.169z"/>
		</g>
	</g>
	<g>
		<g>
			<path fill="#5E6D81" d="M127.938,60.086l-4.536-9.071H96.188l-4.536,9.071H75.777v49.893h68.035V60.086H127.938z
				 M139.277,105.443H80.313V64.622h14.142l4.536-9.071h21.608l4.536,9.071h14.143V105.443z M109.795,69.157
				c-8.768,0-15.875,7.107-15.875,15.875c0,8.768,7.107,15.875,15.875,15.875c8.768,0,15.875-7.107,15.875-15.875
				C125.67,76.264,118.563,69.157,109.795,69.157z M109.795,96.371c-6.262,0-11.339-5.077-11.339-11.339
				c0-6.262,5.077-11.339,11.339-11.339c6.263,0,11.339,5.077,11.339,11.339C121.134,91.294,116.058,96.371,109.795,96.371z
				 M93.92,69.157h-9.071v4.536h9.071V69.157z M109.795,80.497c-2.505,0-4.536,2.031-4.536,4.536c0,2.505,2.031,4.536,4.536,4.536
				c2.505,0,4.536-2.031,4.536-4.536C114.331,82.527,112.3,80.497,109.795,80.497z"/>
		</g>
	</g>
</g>
</svg>
