<?xml version="1.0" encoding="utf-8"?>
<!-- Generator: Adobe Illustrator 17.0.0, SVG Export Plug-In . SVG Version: 6.00 Build 0)  -->
<!DOCTYPE svg PUBLIC "-//W3C//DTD SVG 1.1//EN" "http://www.w3.org/Graphics/SVG/1.1/DTD/svg11.dtd">
<svg version="1.1" xmlns="http://www.w3.org/2000/svg" xmlns:xlink="http://www.w3.org/1999/xlink" x="0px" y="0px" width="64px"
	 height="64px" viewBox="0 0 64 64" enable-background="new 0 0 64 64" xml:space="preserve">
<g id="Layer_2">
	<g>
		<g>
			<path fill="#5E6D81" d="M26.083,5.034c-6.909,0-12.51,5.601-12.51,12.51s5.601,12.51,12.51,12.51s12.51-5.601,12.51-12.51
				C38.592,10.635,32.992,5.034,26.083,5.034z M26.083,28.384c-5.988,0-10.842-4.854-10.842-10.842S20.095,6.701,26.083,6.701
				s10.842,4.854,10.842,10.842C36.924,23.531,32.07,28.384,26.083,28.384z"/>
			<path fill="#5E6D81" d="M57.471,38.739c-3.596,0-6.512,2.721-6.512,6.078s2.916,6.078,6.512,6.078s6.512-2.721,6.512-6.078
				S61.067,38.739,57.471,38.739z M57.471,50.085c-3.117,0-5.644-2.358-5.644-5.267s2.527-5.267,5.644-5.267
				s5.644,2.358,5.644,5.267C63.115,47.726,60.588,50.085,57.471,50.085z"/>
			<polygon fill="#5E6D81" points="33.304,55.013 55.337,55.013 55.689,51.862 33.304,51.862 			"/>
			<polygon fill="#5E6D81" points="35.137,55.013 42.024,28.749 39.694,25.697 32.166,55.013 			"/>
			<polygon fill="#5E6D81" points="56.105,55.013 63.923,25.697 60.662,25.697 53.135,55.013 			"/>
			<polygon fill="#5E6D81" points="39.802,28.848 62.033,28.848 63.116,25.697 39.694,25.697 			"/>
			<path fill="#FFFFFF" d="M62.407,44.833c0.279,2.876-2.496,5.278-5.253,5.242c-3.029-0.04-5.219-2.506-4.505-5.258
				c0.725-2.796,1.523-5.231,4.64-5.231C60.789,39.586,62.064,41.303,62.407,44.833z"/>
			<path fill="#5E6D81" d="M10.448,46.788c-0.511-4.8,0.251-9.264,2.334-11.58c1.932-2.148,4.937-3.193,9.187-3.193v3.152
				c-3.351,0-5.525,0.683-6.844,2.148c-1.431,1.592-1.949,5.332-1.544,9.138L10.448,46.788z"/>
			<path fill="#5E6D81" d="M35.339,42.848c-0.403-3.09-0.885-6.794-6.446-7.698l0.504-3.112c7.877,1.28,8.641,7.14,9.051,10.29
				L35.339,42.848z"/>
			<polygon fill="#5E6D81" points="19.475,33.157 20.32,35.176 20.32,35.176 26.083,42.31 26.083,39.903 21.969,32.024 			"/>
			<polygon fill="#5E6D81" points="29.381,31.925 26.083,39.903 26.083,42.31 31.635,35.744 31.635,35.744 31.053,32.4 			"/>
			<polygon fill="#5E6D81" points="26.083,42.186 26.083,42.186 25.556,39.903 26.639,39.903 			"/>
		</g>
		<path fill="#5E6D81" d="M57.469,51.285c-3.559,0-6.454-2.895-6.454-6.454c0-3.558,2.895-6.453,6.454-6.453
			c3.559,0,6.454,2.895,6.454,6.453C63.923,48.39,61.028,51.285,57.469,51.285z M57.469,39.954c-2.69,0-4.878,2.188-4.878,4.876
			c0,2.69,2.188,4.878,4.878,4.878s4.878-2.188,4.878-4.878C62.348,42.142,60.159,39.954,57.469,39.954z"/>
		<path fill="#5E6D81" d="M26.098,29.261c-6.461,0-11.717-5.257-11.717-11.717c0-6.461,5.256-11.717,11.717-11.717
			c6.46,0,11.717,5.256,11.717,11.717C37.815,24.004,32.559,29.261,26.098,29.261z M26.098,7.402
			c-5.592,0-10.141,4.55-10.141,10.141c0,5.593,4.55,10.141,10.141,10.141s10.141-4.549,10.141-10.141
			C36.239,11.952,31.689,7.402,26.098,7.402z"/>
	</g>
	<path fill="none" stroke="#5E6D81" stroke-width="2.5" stroke-miterlimit="10" d="M6.021,41.431c-2.343,0-4.249-1.906-4.249-4.249
		c0-2.342,1.906-4.248,4.249-4.248s4.249,1.906,4.249,4.248C10.27,39.525,8.364,41.431,6.021,41.431z M6.021,33.971"/>
</g>
<g id="Layer_4">
</g>
<g id="Layer_5">
	<g>
		<polyline fill="#FFFFFF" stroke="#5E6D81" stroke-width="2.5" stroke-miterlimit="10" points="10.321,47.022 4.088,41.209 
			9.937,35.178 24.582,50.9 27.56,58.866 27.56,58.866 19.354,55.943 17.269,54.044 		"/>
		<path fill="#5E6D81" d="M13.02,57.341c-3.219,0-5.837-2.618-5.837-5.837c0-3.218,2.618-5.836,5.837-5.836s5.837,2.618,5.837,5.836
			C18.857,54.723,16.239,57.341,13.02,57.341z M13.02,47.093c-2.433,0-4.412,1.979-4.412,4.411c0,2.433,1.979,4.412,4.412,4.412
			s4.412-1.979,4.412-4.412C17.432,49.072,15.453,47.093,13.02,47.093z"/>
	</g>
</g>
</svg>
