<?xml version="1.0" encoding="utf-8"?>
<!-- Generator: Adobe Illustrator 17.0.0, SVG Export Plug-In . SVG Version: 6.00 Build 0)  -->
<!DOCTYPE svg PUBLIC "-//W3C//DTD SVG 1.1//EN" "http://www.w3.org/Graphics/SVG/1.1/DTD/svg11.dtd">
<svg version="1.1" id="Layer_1" xmlns="http://www.w3.org/2000/svg" xmlns:xlink="http://www.w3.org/1999/xlink" x="0px" y="0px"
	 width="64px" height="64px" viewBox="0 0 64 64" enable-background="new 0 0 64 64" xml:space="preserve">
<g>
	<path fill="#5E6D81" d="M63.655,48.883V2.456H0.345v46.427h23.213v4.221l-4.221,8.441h25.324l-4.221-8.441v-4.221H63.655z
		 M26.168,57.324l1.612-3.225v-5.216h8.441v5.216l1.612,3.225H26.168z M4.566,44.662V6.676h54.868v37.986H4.566z M8.787,40.441
		h46.427V10.897H8.787V40.441z M13.007,15.117h37.986v21.103H13.007V15.117z"/>
	<g>
		<path fill="#5E6D81" d="M35.173,21.003h0.647l-0.969,5.437c-0.064,0.33-0.111,0.622-0.142,0.882
			c-0.033,0.26-0.047,0.488-0.047,0.69c0,0.317,0.054,0.548,0.163,0.692c0.107,0.146,0.297,0.218,0.565,0.218
			c0.435,0,0.865-0.113,1.293-0.342c0.427-0.227,0.808-0.55,1.14-0.967c0.332-0.416,0.604-0.919,0.814-1.506
			c0.21-0.587,0.315-1.249,0.315-1.983c0-0.973-0.165-1.832-0.495-2.578c-0.33-0.746-0.793-1.375-1.389-1.886
			c-0.598-0.513-1.308-0.901-2.132-1.166c-0.826-0.266-1.733-0.398-2.724-0.398c-1.028,0-1.996,0.19-2.904,0.569
			c-0.908,0.379-1.695,0.905-2.362,1.577s-1.193,1.476-1.581,2.411c-0.387,0.938-0.58,1.958-0.58,3.058
			c0,1.127,0.174,2.135,0.522,3.021c0.349,0.886,0.847,1.632,1.494,2.24c0.647,0.608,1.421,1.07,2.322,1.387
			c0.901,0.315,1.903,0.474,3.006,0.474c0.369,0,0.787-0.041,1.257-0.124c0.468-0.082,0.894-0.218,1.274-0.408l0.381,1.216
			c-0.569,0.241-1.096,0.402-1.577,0.484c-0.482,0.082-1,0.124-1.558,0.124c-1.177,0-2.281-0.177-3.314-0.532
			c-1.031-0.354-1.931-0.88-2.697-1.577c-0.767-0.697-1.37-1.56-1.814-2.593c-0.444-1.032-0.665-2.226-0.665-3.58
			c0-1.381,0.237-2.628,0.712-3.743c0.475-1.113,1.117-2.063,1.928-2.848c0.81-0.785,1.753-1.389,2.83-1.814
			c1.076-0.425,2.215-0.637,3.419-0.637c1.14,0,2.197,0.167,3.172,0.503c0.974,0.336,1.819,0.816,2.534,1.445
			c0.715,0.627,1.28,1.393,1.692,2.298c0.41,0.905,0.616,1.933,0.616,3.085c0,0.812-0.14,1.587-0.418,2.327
			c-0.28,0.742-0.657,1.391-1.133,1.948c-0.476,0.556-1.032,1.004-1.667,1.34c-0.635,0.336-1.306,0.503-2.017,0.503
			c-0.534,0-0.958-0.113-1.276-0.342c-0.319-0.229-0.476-0.651-0.476-1.272c0-0.115,0.006-0.239,0.019-0.371
			c0.012-0.134,0.031-0.276,0.056-0.429h-0.074c-0.179,0.293-0.387,0.581-0.629,0.866c-0.239,0.284-0.509,0.54-0.806,0.769
			c-0.297,0.229-0.615,0.414-0.95,0.561c-0.336,0.146-0.687,0.218-1.054,0.218c-0.304,0-0.596-0.066-0.874-0.2
			c-0.278-0.132-0.519-0.326-0.721-0.579c-0.203-0.253-0.365-0.554-0.484-0.903c-0.121-0.348-0.181-0.744-0.181-1.187
			c0-0.81,0.134-1.607,0.4-2.393c0.266-0.785,0.623-1.482,1.073-2.09c0.449-0.608,0.975-1.098,1.577-1.471
			c0.601-0.373,1.237-0.561,1.908-0.561c0.468,0,0.843,0.07,1.121,0.21c0.278,0.138,0.55,0.309,0.816,0.511L35.173,21.003z
			 M34.091,22.864c-0.214-0.253-0.431-0.427-0.645-0.523c-0.216-0.095-0.488-0.142-0.816-0.142c-0.495,0-0.958,0.15-1.387,0.447
			c-0.431,0.297-0.802,0.684-1.112,1.158c-0.31,0.474-0.557,1.008-0.741,1.595c-0.183,0.589-0.275,1.169-0.275,1.737
			c0,0.495,0.101,0.915,0.304,1.263c0.203,0.348,0.57,0.523,1.102,0.523c0.253,0,0.516-0.082,0.788-0.247
			c0.272-0.165,0.54-0.39,0.808-0.674c0.266-0.284,0.519-0.606,0.758-0.96c0.241-0.354,0.458-0.715,0.647-1.082L34.091,22.864z"/>
	</g>
</g>
</svg>
