<?xml version="1.0" encoding="utf-8"?>
<!-- Generator: Adobe Illustrator 17.0.0, SVG Export Plug-In . SVG Version: 6.00 Build 0)  -->
<!DOCTYPE svg PUBLIC "-//W3C//DTD SVG 1.1//EN" "http://www.w3.org/Graphics/SVG/1.1/DTD/svg11.dtd">
<svg version="1.1" id="Layer_1" xmlns="http://www.w3.org/2000/svg" xmlns:xlink="http://www.w3.org/1999/xlink" x="0px" y="0px"
	 width="64px" height="64px" viewBox="0 0 64 64" enable-background="new 0 0 64 64" xml:space="preserve">
<g>
	<path fill="#5E6D81" d="M13.791,2.352v9.105H0.134v40.971c0,5.028,4.077,9.105,9.105,9.105h45.523c5.028,0,9.105-4.077,9.105-9.105
		V2.352H13.791z M13.791,52.427c0,2.514-2.038,4.552-4.552,4.552c-2.514,0-4.552-2.038-4.552-4.552V16.009h9.105V52.427z
		 M59.314,52.427c0,2.511-2.042,4.552-4.552,4.552h-37.64c0.777-1.34,1.221-2.895,1.221-4.552V6.904h40.971V52.427z"/>
	<path fill="#5E6D81" d="M34.284,18.288v17.403c-1.21-0.903-2.803-1.458-4.556-1.458c-3.774,0-6.833,2.549-6.833,5.694
		c0,3.145,3.06,5.694,6.833,5.694c3.774,0,6.833-2.549,6.833-5.694V27.071l15.944-3.543v7.607c-1.21-0.903-2.803-1.458-4.556-1.458
		c-3.774,0-6.833,2.549-6.833,5.694c0,3.145,3.06,5.694,6.833,5.694c3.774,0,6.833-2.549,6.833-5.694V13.732L34.284,18.288z
		 M29.729,43.344c-2.469,0-4.556-1.565-4.556-3.417s2.086-3.417,4.556-3.417s4.556,1.565,4.556,3.417S32.198,43.344,29.729,43.344z
		 M47.951,38.788c-2.469,0-4.556-1.565-4.556-3.417s2.086-3.417,4.556-3.417c2.469,0,4.556,1.565,4.556,3.417
		S50.42,38.788,47.951,38.788z M36.562,24.738v-4.622l15.944-3.543v4.622L36.562,24.738z"/>
</g>
</svg>
