<?xml version="1.0" encoding="utf-8"?>
<!-- Generator: Adobe Illustrator 17.0.0, SVG Export Plug-In . SVG Version: 6.00 Build 0)  -->
<!DOCTYPE svg PUBLIC "-//W3C//DTD SVG 1.1//EN" "http://www.w3.org/Graphics/SVG/1.1/DTD/svg11.dtd">
<svg version="1.1" id="Layer_2" xmlns="http://www.w3.org/2000/svg" xmlns:xlink="http://www.w3.org/1999/xlink" x="0px" y="0px"
	 width="64px" height="64px" viewBox="0 0 64 64" enable-background="new 0 0 64 64" xml:space="preserve">
<g>
	<g>
		<path fill="#5E6D81" d="M18.685,14.011c-6.876,0-12.45,5.574-12.45,12.45c0,6.876,5.574,12.45,12.45,12.45
			c6.876,0,12.45-5.574,12.45-12.45C31.135,19.585,25.561,14.011,18.685,14.011z M18.685,37.25c-5.959,0-10.79-4.831-10.79-10.79
			c0-5.959,4.831-10.79,10.79-10.79c5.959,0,10.79,4.831,10.79,10.79C29.475,32.42,24.644,37.25,18.685,37.25z"/>
		<path fill="#5E6D81" d="M49.924,47.555c-3.579,0-6.481,2.708-6.481,6.049c0,3.341,2.902,6.049,6.481,6.049
			c3.579,0,6.481-2.708,6.481-6.049C56.405,50.263,53.503,47.555,49.924,47.555z M49.924,58.847c-3.102,0-5.617-2.347-5.617-5.242
			c0-2.895,2.515-5.242,5.617-5.242c3.102,0,5.617,2.347,5.617,5.242C55.541,56.499,53.026,58.847,49.924,58.847z"/>
		<polygon fill="#5E6D81" points="25.872,63.752 47.8,63.752 48.15,60.616 25.872,60.616 		"/>
		<polygon fill="#5E6D81" points="27.696,63.752 34.55,37.613 32.231,34.575 24.739,63.752 		"/>
		<polygon fill="#5E6D81" points="48.564,63.752 56.345,34.575 53.099,34.575 45.608,63.752 		"/>
		<polygon fill="#5E6D81" points="32.339,37.711 54.464,37.711 55.542,34.575 32.231,34.575 		"/>
		<path fill="#FFFFFF" d="M54.836,53.62c0.278,2.862-2.484,5.253-5.228,5.217c-3.015-0.04-5.194-2.494-4.484-5.233
			c0.722-2.783,1.516-5.206,4.618-5.206C53.226,48.398,54.495,50.107,54.836,53.62z"/>
		<path fill="#5E6D81" d="M3.125,54.566c-0.509-4.777,0.25-8.22,2.323-10.525c1.923-2.138,4.913-3.178,9.143-3.178V44
			c-3.335,0-5.499,0.68-6.811,2.138c-1.424,1.584-1.94,4.307-1.537,8.094L3.125,54.566z"/>
		<path fill="#5E6D81" d="M27.897,51.645c-0.401-3.075-0.881-6.762-6.415-7.661l0.502-3.097c7.839,1.274,8.6,7.106,9.008,10.241
			L27.897,51.645z"/>
		<path fill="#5E6D81" d="M50.126,0.248H34.824c-1.683,0-3.06,1.377-3.06,3.06v10.711c0,1.683,1.377,3.06,3.06,3.06h1.53v4.591
			l7.651-4.591h6.121c1.683,0,3.06-1.377,3.06-3.06V3.308C53.187,1.625,51.81,0.248,50.126,0.248z M51.656,14.019
			c0,0.844-0.686,1.53-1.53,1.53h-6.545l-5.696,3.418v-3.418h-3.06c-0.844,0-1.53-0.686-1.53-1.53V3.308
			c0-0.844,0.686-1.53,1.53-1.53h15.302c0.844,0,1.53,0.686,1.53,1.53V14.019z M36.355,7.133c-0.845,0-1.53,0.685-1.53,1.53
			c0,0.845,0.685,1.53,1.53,1.53c0.845,0,1.53-0.685,1.53-1.53C37.885,7.819,37.2,7.133,36.355,7.133z M42.475,7.133
			c-0.845,0-1.53,0.685-1.53,1.53c0,0.845,0.685,1.53,1.53,1.53c0.845,0,1.53-0.685,1.53-1.53
			C44.006,7.819,43.32,7.133,42.475,7.133z M48.596,7.133c-0.845,0-1.53,0.685-1.53,1.53c0,0.845,0.685,1.53,1.53,1.53
			c0.845,0,1.53-0.685,1.53-1.53C50.126,7.819,49.441,7.133,48.596,7.133z"/>
		<polygon fill="#5E6D81" points="12.109,42 12.95,44.009 12.95,44.009 18.685,51.109 18.685,48.714 14.591,40.872 		"/>
		<polygon fill="#5E6D81" points="21.968,40.774 18.685,48.714 18.685,51.109 24.211,44.574 24.211,44.574 23.632,41.246 		"/>
		<polygon fill="#5E6D81" points="18.685,50.986 18.685,50.986 18.161,48.714 19.239,48.714 		"/>
	</g>
	<path fill="#5E6D81" d="M49.922,60.041c-3.542,0-6.423-2.881-6.423-6.423c0-3.541,2.881-6.422,6.423-6.422
		c3.542,0,6.423,2.881,6.423,6.422C56.345,57.16,53.464,60.041,49.922,60.041z M49.922,48.764c-2.677,0-4.855,2.178-4.855,4.853
		c0,2.677,2.178,4.855,4.855,4.855s4.855-2.178,4.855-4.855C54.777,50.942,52.599,48.764,49.922,48.764z"/>
	<path fill="#5E6D81" d="M18.7,38.122c-6.43,0-11.661-5.232-11.661-11.661c0-6.43,5.231-11.661,11.661-11.661
		c6.429,0,11.661,5.231,11.661,11.661C30.361,32.89,25.13,38.122,18.7,38.122z M18.7,16.368c-5.565,0-10.093,4.528-10.093,10.093
		c0,5.566,4.528,10.093,10.093,10.093s10.093-4.527,10.093-10.093C28.793,20.896,24.265,16.368,18.7,16.368z"/>
</g>
</svg>
